# xmcd
#
# Track frame offsets:
#	150
#	20660
#	42575
#	61550
#	85442
#	105062
#	122240
#	146550
#	165447
#	183180
#
# Disc length: 2747 seconds
#
# Revision: 0
# Processed by: cddbd v1.5.1PL2 Copyright (c) Steve Scherf et al.
# Submitted via: dBpowerAMP V4.0
#
DISCID=790ab90a
DTITLE=Rome - The Best Of Rome
DYEAR=2006
DGENRE=R&B
TTITLE0=I Belong To You-(Every Time I See Your Face)
TTITLE1=Do You Like This
TTITLE2=Crazy Love
TTITLE3=I Gotta Be Down
TTITLE4=Thats The Way I Feel About You
TTITLE5=Do Me Right
TTITLE6=Let Me Come Home
TTITLE7=Never Find Another Love Like Me
TTITLE8=Feelin Kinda Good
TTITLE9=Real Joy
EXTD=
EXTT0=
EXTT1=
EXTT2=
EXTT3=
EXTT4=
EXTT5=
EXTT6=
EXTT7=
EXTT8=
EXTT9=
PLAYORDER=
